<svg width="285" height="249" viewBox="0 0 285 249" fill="none" xmlns="http://www.w3.org/2000/svg">
<path d="M248.278 97.7186L281.231 118.678C286.254 121.868 286.254 127.096 281.231 130.289L248.265 151.246C243.239 154.439 240.193 161.805 241.487 167.621L249.98 205.731C251.275 211.544 247.578 215.245 241.761 213.944L203.651 205.457L208.164 185.204L224.987 188.954L221.241 172.137C218.038 157.775 224.726 141.623 237.134 133.74L251.701 124.482L237.155 115.236C224.757 107.357 218.06 91.2269 221.241 76.8338L224.987 60.0163L208.133 63.7757C205.78 64.2923 203.34 64.5537 200.857 64.5537C188.418 64.5537 176.209 57.9997 169.78 47.8576L160.519 33.2995L151.27 47.8483C144.828 57.9997 132.619 64.5537 120.18 64.5537C117.697 64.5537 115.257 64.2892 112.864 63.7632L96.0496 60.0132L99.8059 76.8711C102.98 91.2238 96.2799 107.353 83.894 115.224L69.336 124.482L83.8816 133.734L72.7592 151.246L39.8028 130.286C34.7799 127.096 34.7799 121.868 39.8028 118.678L72.7561 97.7186C77.7851 94.5257 80.8318 87.1626 79.5465 81.3462L71.0476 43.2363C69.7623 37.423 73.4594 33.7228 79.2758 35.0112L117.383 43.5101C123.196 44.7954 130.562 41.7456 133.752 36.7228L154.715 3.76945C157.904 -1.25648 163.133 -1.25648 166.322 3.76945L187.282 36.7228C190.475 41.7487 197.838 44.7985 203.651 43.5101L241.758 35.0112C247.578 33.7228 251.272 37.423 249.986 43.2363L241.487 81.3462C240.202 87.1626 243.252 94.5288 248.278 97.7186Z" fill="white"/>
<path d="M108.65 124.482C108.65 95.8327 131.869 72.6138 160.519 72.6138C189.168 72.6138 212.387 95.8327 212.387 124.482C212.387 153.128 189.168 176.347 160.519 176.347V155.602C177.71 155.602 191.639 141.67 191.639 124.482C191.639 107.291 177.71 93.3618 160.519 93.3618C143.328 93.3618 129.398 107.291 129.398 124.482H108.65Z" fill="white"/>
<path d="M172.582 158.285C163.693 136.97 142.646 122 118.082 122C84.2352 122 55.8843 145.137 47.7938 176.428H36.3324C16.2683 176.428 0 192.675 0 212.713C0 232.753 16.2683 249 36.3324 249H172.582C197.669 249 218 228.696 218 203.642C218 178.589 197.669 158.285 172.582 158.285ZM172.582 230.854H36.3324C26.3071 230.854 18.1649 222.706 18.1649 212.71C18.1649 202.701 26.3071 194.566 36.3324 194.566H63.5824C63.5824 164.5 87.9848 140.138 118.082 140.138C139.07 140.138 156.208 156.067 158.497 176.423H172.582C187.611 176.423 199.832 188.631 199.832 203.637C199.832 218.651 187.611 230.854 172.582 230.854Z" fill="white"/>
</svg>
