<svg width="107" height="84" viewBox="0 0 107 84" fill="none" xmlns="http://www.w3.org/2000/svg">
<path d="M95.9 63.2001H94.8C94.3 60.2001 93 57.4001 91 55.1001C96.1 49.9001 99.6 43.4001 101 36.2001C101.3 34.6001 99.5 33.5001 98.2 34.5001C83.8 45.6001 63.2 42.9001 52.1 28.5001C46.5 21.2001 44.2 12.0001 45.8 3.00008C46.1 1.40008 44.2 0.300083 43 1.30008C33.6 8.90008 28.5 20.6001 29.6 32.7001C23.7 34.8001 19 39.4001 16.8 45.3001C9.2 43.8001 1.8 48.8001 0.3 56.4001C-1.4 65.1001 5.3 73.1001 14.1 73.2001C16.9 73.2001 23.9 73.2001 25.3 73.2001C27.1 79.2001 32.6 83.3001 38.8 83.3001C49.5 83.3001 71.6 83.3001 96 83.3001C101.5 83.4001 106.1 78.9001 106.1 73.4001C106.1 67.7001 101.6 63.1001 95.9 63.2001ZM96.5 39.9001C94.9 44.7001 92.2 49.1001 88.6 52.6001C85.4 50.1001 81.3 48.7001 77 49.0001C75.3 46.9001 73 45.2001 71 44.1001C79.9 45.9001 89 44.2001 96.5 39.9001ZM41.9 7.00008C41.3 21.8001 49.8 35.5001 63.3 41.6001L63.7 41.8001C62.9 41.7001 61.9 41.6001 61.1 41.6001C53.8 41.6001 46.5 45.6001 42.7 52.7001C37.5 47.5001 34.2 40.7001 33.3 33.7001C32 23.9001 35.2 14.1001 41.9 7.00008ZM14.1 69.6001C8.3 69.5001 3.6 64.8001 3.6 58.9001C3.7 51.7001 10.7 46.8001 17.4 49.0001C18.3 49.3001 19.3 48.8001 19.6 47.9001V47.8001C21 42.5001 24.9 38.2001 30 36.2001C31.4 43.5001 35.1 50.2001 40.1 55.1001C31.8 54.3001 24.7 60.9001 24.7 69.1001C24.7 69.3001 24.7 69.4001 24.7 69.6001C23.1 69.6001 15.8 69.6001 14.1 69.6001ZM95.9 79.7001C95.8 79.7001 38.9 79.7001 38.8 79.7001C33 79.7001 28.2 75.0001 28.2 69.2001C28.2 63.4001 32.9 58.6001 38.7 58.6001C39.8 58.6001 40.9 58.8001 42 59.1001C42.9 59.4001 43.9 58.9001 44.2 58.0001V57.9001C46.4 49.8001 54.3 44.5001 61.9 45.1001C67 45.4001 71.7 47.8001 74.7 51.9001C75.1 52.4001 75.7 52.7001 76.3 52.6001C83.7 51.6001 90.8 57.2001 91.4 65.1001C91.5 66.0001 92.2 66.7001 93.1 66.7001H95.7C99.3 66.7001 102.2 69.6001 102.2 73.2001C102.5 76.8001 99.5 79.7001 95.9 79.7001Z" fill="black"/>
</svg>
