<svg width="80" height="80" viewBox="0 0 80 80" fill="none" xmlns="http://www.w3.org/2000/svg">
<path d="M76.11 40.586C78.503 37.698 80 34.043 80 30C80 20.794 72.539 13.333 63.333 13.333C60.071 5.501 52.347 0 43.333 0C30.912 0 20.508 8.503 17.539 20H13.333C5.97 20 0 25.97 0 33.333C0 40.695 5.97 46.666 13.333 46.666H36.956C35.761 48.732 34.817 50.963 34.205 53.332H30C22.637 53.332 16.667 59.303 16.667 66.666C16.667 74.029 22.637 80 30 80H80V73.332H30C26.322 73.332 23.333 70.338 23.333 66.666C23.333 62.988 26.322 60 30 60H40C40 48.951 48.955 40 60 40C67.702 40 73.991 45.852 74.831 53.332H80V46.666C79.06 44.406 77.712 42.375 76.106 40.578L76.11 40.586ZM60 33.333C53.249 33.333 47.103 35.859 42.415 40H13.333C9.654 40 6.666 37.005 6.666 33.333C6.666 29.655 9.654 26.667 13.333 26.667H23.333C23.333 15.618 32.288 6.667 43.333 6.667C51.035 6.667 57.324 12.52 58.164 20H63.333C68.848 20 73.333 24.485 73.333 30C73.333 32.437 72.422 34.642 70.97 36.377V36.379C67.747 34.473 64.017 33.333 60 33.333Z" fill="black"/>
</svg>
