<?xml version="1.0" encoding="utf-8"?>
<!-- Generator: Adobe Illustrator 23.0.6, SVG Export Plug-In . SVG Version: 6.00 Build 0)  -->
<svg version="1.1" id="Layer_1" xmlns="http://www.w3.org/2000/svg" xmlns:xlink="http://www.w3.org/1999/xlink" x="0px" y="0px"
	 viewBox="0 0 128 128" style="enable-background:new 0 0 128 128;" xml:space="preserve">
<title>CLOUD AND MOON</title>
<path d="M106.9,83.2h-1.1c-0.5-3-1.8-5.8-3.8-8.1c5.1-5.2,8.6-11.7,10-18.9c0.3-1.6-1.5-2.7-2.8-1.7c-14.4,11.1-35,8.4-46.1-6
	c-5.6-7.3-7.9-16.5-6.3-25.5c0.3-1.6-1.6-2.7-2.8-1.7c-9.4,7.6-14.5,19.3-13.4,31.4c-5.9,2.1-10.6,6.7-12.8,12.6
	c-7.6-1.5-15,3.5-16.5,11.1c-1.7,8.7,5,16.7,13.8,16.8c2.8,0,9.8,0,11.2,0c1.8,6,7.3,10.1,13.5,10.1c10.7,0,32.8,0,57.2,0
	c5.5,0.1,10.1-4.4,10.1-9.9C117.1,87.7,112.6,83.1,106.9,83.2L106.9,83.2z M107.5,59.9c-1.6,4.8-4.3,9.2-7.9,12.7
	c-3.2-2.5-7.3-3.9-11.6-3.6c-1.7-2.1-4-3.8-6-4.9C90.9,65.9,100,64.2,107.5,59.9z M52.9,27c-0.6,14.8,7.9,28.5,21.4,34.6l0.4,0.2
	c-0.8-0.1-1.8-0.2-2.6-0.2c-7.3,0-14.6,4-18.4,11.1c-5.2-5.2-8.5-12-9.4-19C43,43.9,46.2,34.1,52.9,27z M25.1,89.6
	c-5.8-0.1-10.5-4.8-10.5-10.7c0.1-7.2,7.1-12.1,13.8-9.9c0.9,0.3,1.9-0.2,2.2-1.1c0,0,0-0.1,0-0.1c1.4-5.3,5.3-9.6,10.4-11.6
	c1.4,7.3,5.1,14,10.1,18.9c-8.3-0.8-15.4,5.8-15.4,14c0,0.2,0,0.3,0,0.5C34.1,89.6,26.8,89.6,25.1,89.6z M106.9,99.7
	c-0.1,0-57,0-57.1,0c-5.8,0-10.6-4.7-10.6-10.5c0-5.8,4.7-10.6,10.5-10.6c1.1,0,2.2,0.2,3.3,0.5c0.9,0.3,1.9-0.2,2.2-1.1
	c0,0,0-0.1,0-0.1c2.2-8.1,10.1-13.4,17.7-12.8c5.1,0.3,9.8,2.7,12.8,6.8c0.4,0.5,1,0.8,1.6,0.7c7.4-1,14.5,4.6,15.1,12.5
	c0.1,0.9,0.8,1.6,1.7,1.6h2.6c3.6,0,6.5,2.9,6.5,6.5C113.5,96.8,110.5,99.7,106.9,99.7z"/>
</svg>
