<svg width="40" height="40" viewBox="0 0 40 40" fill="none" xmlns="http://www.w3.org/2000/svg">
<path d="M40 3.3335V0C32.272 0 25.5775 4.391 22.2475 10.8105C18.5805 6.2535 12.967 3.333 6.6665 3.333V6.6665C10.3465 6.6665 13.3335 9.65 13.3335 13.3335V18.457C9.7915 15.28 5.1285 13.3335 0 13.3335V16.6665C3.68 16.6665 6.6665 19.65 6.6665 23.3335V40H40V16.6665C37.435 16.6665 35.104 17.64 33.3335 19.2285V10C33.3335 6.317 36.32 3.3335 40 3.3335ZM16.6665 36.6665H10V23.3335C10 21.958 9.72 20.646 9.2155 19.453C13.705 22.4415 16.6665 27.547 16.6665 33.3315V36.6665ZM20 19.9985V33.3315C20 29.2465 18.7695 25.4505 16.6665 22.2865V13.3335C16.6665 11.958 16.3865 10.646 15.8825 9.453C17.86 10.768 19.5155 12.513 20.7765 14.5275C20.283 16.268 20 18.099 20 19.9985ZM30 10V36.6665H23.3335V19.9985C23.3335 14.214 26.2955 9.108 30.7825 6.1195C30.28 7.313 30 8.623 30 10ZM36.6665 20.895V36.6665H33.3335V26.6665C33.3335 24.204 34.6765 22.0495 36.6665 20.895Z" fill="#605B52"/>
</svg>
