<svg width="250" height="250" viewBox="0 0 250 250" fill="none" xmlns="http://www.w3.org/2000/svg">
<path d="M130.507 249.905C100.878 249.805 72.172 239.587 49.1437 220.943C26.1154 202.3 10.146 176.35 3.88058 147.391C-2.38489 118.432 1.42943 88.202 14.6918 61.707C27.9542 35.212 49.8689 14.042 76.8064 1.70323C78.5271 0.865885 80.4657 0.584298 82.3536 0.897467C84.2414 1.21064 85.9853 2.10306 87.3435 3.45117C88.7017 4.79927 89.6072 6.53634 89.9345 8.42183C90.2618 10.3073 89.9947 12.2479 89.1703 13.9749C79.6131 34.6667 76.6123 57.7864 80.5704 80.2325C84.5286 102.679 95.2564 123.377 111.315 139.552V139.552C127.482 155.591 148.164 166.307 170.591 170.265C193.018 174.223 216.119 171.233 236.8 161.696C238.517 160.891 240.441 160.634 242.31 160.962C244.178 161.289 245.901 162.184 247.242 163.526C248.583 164.867 249.479 166.589 249.806 168.458C250.133 170.327 249.877 172.251 249.071 173.968C238.651 196.59 221.978 215.759 201.019 229.214C180.06 242.669 155.689 249.848 130.783 249.905H130.507ZM63.7965 30.86C59.7419 33.9635 55.8895 37.3228 52.263 40.9173C31.3481 61.8817 19.6024 90.2858 19.6024 119.899C19.6024 149.512 31.3481 177.916 52.263 198.881C62.5525 209.251 74.8017 217.471 88.2977 223.062C101.794 228.654 116.267 231.506 130.876 231.451V231.451C145.569 231.449 160.117 228.546 173.687 222.909C187.256 217.273 199.579 209.013 209.95 198.604C213.547 194.948 216.906 191.064 220.007 186.978C198.489 192.026 176.041 191.525 154.769 185.521C133.498 179.517 114.101 168.208 98.3971 152.654V152.654C82.7647 136.96 71.3856 117.544 65.3321 96.2357C59.2786 74.9275 58.7502 52.4289 63.7965 30.86V30.86Z" fill="white" fill-opacity="0.16"/>
</svg>
