<svg width="64" height="48" viewBox="0 0 64 48" fill="none" xmlns="http://www.w3.org/2000/svg">
<path d="M32 0C25.5469 0 19.9453 4.51563 18.4375 10.6875C15.9453 11.6562 13.875 13.625 12.8125 16.0625C5.82031 15.5469 0 21.1094 0 28C0 34.6172 5.38281 40 12 40H16L18 36H12C7.58594 36 4 32.4141 4 28C4 23.5859 7.58594 20 12 20C12.5547 20 13.1172 20.0469 13.75 20.1875L15.75 20.625L16.125 18.6875C16.6172 16.4766 18.4141 14.7188 20.625 14.1875L21.9375 13.875L22.125 12.5625C22.8438 7.69531 27.0859 4 32 4C35.7891 4 39.2266 6.10938 40.9375 9.5L41.6875 11.0625L43.375 10.5C44.3125 10.1719 45.1641 10 46 10C50.4141 10 54 13.5859 54 18C54 18.0781 54.0078 18.1797 54 18.25C53.9844 18.3828 53.9531 18.4844 53.9375 18.625L53.8125 20.0625L55.125 20.625C58.0781 21.8828 60 24.7891 60 28C60 32.4141 56.4141 36 52 36H48L50 40H52C58.6172 40 64 34.6172 64 28C64 23.6719 61.6875 19.75 58 17.625C57.7891 11.1875 52.4844 6 46 6C45.2188 6 44.4141 6.07813 43.625 6.25C41.0469 2.35938 36.7422 0 32 0ZM36 20C36 20 32 25.7891 32 28C32 30.2109 33.7891 32 36 32C38.2109 32 40 30.2109 40 28C40 25.7891 36 20 36 20ZM26 30C26 30 22 35.7891 22 38C22 40.2109 23.7891 42 26 42C28.2109 42 30 40.2109 30 38C30 35.7891 26 30 26 30ZM42 36C42 36 38 41.7891 38 44C38 46.2109 39.7891 48 42 48C44.2109 48 46 46.2109 46 44C46 41.7891 42 36 42 36Z" fill="black"/>
</svg>
