<svg width="80" height="68" viewBox="0 0 80 68" fill="none" xmlns="http://www.w3.org/2000/svg">
<path d="M4.447 54L0 67.334H7.028L11.471 54H4.447Z" fill="black"/>
<path d="M19.639 54L15.195 67.334H22.22L26.667 54H19.639Z" fill="black"/>
<path d="M34.834 54L30.391 67.334H37.416L41.862 54H34.834Z" fill="black"/>
<path d="M50.029 54L45.586 67.334H52.61L57.058 54H50.029Z" fill="black"/>
<path d="M65.225 54L60.781 67.334H67.806L72.253 54H65.225Z" fill="black"/>
<path d="M63.333 14C60.071 6.16799 52.347 0.666992 43.333 0.666992C30.912 0.666992 20.508 9.16899 17.539 20.667H13.333C5.97 20.667 0 26.637 0 34C0 41.364 5.97 47.334 13.333 47.334H63.333C72.539 47.334 80 39.873 80 30.667C80 21.461 72.539 14 63.333 14ZM63.333 40.666H13.333C9.654 40.666 6.666 37.672 6.666 33.999C6.666 30.321 9.654 27.332 13.333 27.332H23.333C23.333 16.284 32.288 7.33199 43.333 7.33199C51.035 7.33199 57.324 13.185 58.164 20.665H63.333C68.848 20.665 73.333 25.151 73.333 30.665C73.333 36.182 68.848 40.666 63.333 40.666Z" fill="black"/>
</svg>
