<svg width="250" height="250" viewBox="0 0 250 250" fill="none" xmlns="http://www.w3.org/2000/svg">
<path d="M246.231 118.677L213.278 97.7179C208.252 94.5281 205.202 87.1619 206.488 81.3455L214.987 43.2355C216.272 37.4222 212.578 33.722 206.758 35.0104L168.652 43.5094C162.838 44.7978 155.475 41.748 152.282 36.722L131.323 3.76872C128.133 -1.25722 122.905 -1.25722 119.715 3.76872L98.7522 36.722C95.5623 41.7449 88.1962 44.7947 82.3829 43.5094L44.276 35.0104C38.4596 33.722 34.7625 37.4222 36.0478 43.2355L44.5468 81.3455C45.8321 87.1619 42.7854 94.5249 37.7563 97.7179L4.803 118.677C-0.219817 121.867 -0.219817 127.095 4.803 130.285L37.7594 151.245C42.7854 154.435 45.8352 161.804 44.5499 167.62L36.0478 205.727C34.7625 211.537 38.4565 215.241 44.276 213.952L82.386 205.456C88.1993 204.168 95.5623 207.218 98.7553 212.241L119.715 245.197C122.905 250.223 128.133 250.223 131.323 245.197L152.282 212.234C155.472 207.209 162.838 204.156 168.652 205.456L206.762 213.943C212.578 215.244 216.275 211.544 214.98 205.73L206.488 167.62C205.193 161.804 208.24 154.438 213.266 151.245L246.231 130.288C251.254 127.095 251.254 121.867 246.231 118.677ZM202.134 133.74C189.726 141.622 183.038 157.774 186.241 172.136L189.988 188.953L173.164 185.203C170.802 184.674 168.34 184.413 165.848 184.413C153.409 184.413 141.21 190.964 134.768 201.109L125.519 215.667L116.257 201.109C109.828 190.964 97.6194 184.413 85.1806 184.413C82.6972 184.413 80.2574 184.674 77.9047 185.191L61.0499 188.953L64.7968 172.136C67.9773 157.743 61.2802 141.61 48.8818 133.733L34.3362 124.481L48.8943 115.223C61.2802 107.353 67.9804 91.2231 64.8061 76.8704L61.0499 60.0125L77.8642 63.7625C80.2574 64.2884 82.6972 64.5529 85.1806 64.5529C97.6194 64.5529 109.828 57.999 116.27 47.8476L125.519 33.2988L134.78 47.8569C141.21 57.999 153.418 64.5529 165.857 64.5529C168.34 64.5529 170.78 64.2915 173.133 63.7749L189.988 60.0156L186.241 76.833C183.06 91.2262 189.757 107.356 202.156 115.236L216.701 124.481L202.134 133.74Z" fill="white" fill-opacity="0.16"/>
<path d="M125.519 72.6132C96.8693 72.6132 73.6504 95.832 73.6504 124.481C73.6504 153.128 96.8693 176.347 125.519 176.347C154.168 176.347 177.387 153.128 177.387 124.481C177.387 95.832 154.168 72.6132 125.519 72.6132ZM125.519 155.602C108.328 155.602 94.3983 141.669 94.3983 124.481C94.3983 107.291 108.328 93.3611 125.519 93.3611C142.71 93.3611 156.639 107.291 156.639 124.481C156.639 141.669 142.71 155.602 125.519 155.602Z" fill="white" fill-opacity="0.16"/>
</svg>
