<svg width="80" height="68" viewBox="0 0 80 68" fill="none" xmlns="http://www.w3.org/2000/svg">
<path d="M50 24H37.777L30 47.333H40L33.333 67.333L53.333 40.667H43.333L50 24Z" fill="black"/>
<path d="M23.333 27.333C23.333 16.288 32.288 7.33299 43.333 7.33299C51.035 7.33299 57.324 13.186 58.164 20.666H63.333C68.848 20.666 73.333 25.152 73.333 30.666C73.333 36.18 68.848 40.666 63.333 40.666H60V47.332H63.333C72.539 47.333 80 39.872 80 30.667C80 21.462 72.539 14 63.333 14C60.071 6.17099 52.347 0.666992 43.333 0.666992C30.913 0.666992 20.506 9.17299 17.541 20.667H13.334C5.97 20.667 0 26.637 0 34C0 41.363 5.97 47.333 13.333 47.333H23.333V40.667H13.333C9.656 40.667 6.666 37.675 6.666 34C6.666 30.325 9.656 27.333 13.333 27.333H23.333Z" fill="black"/>
</svg>
