<svg width="48" height="48" viewBox="0 0 48 48" fill="none" xmlns="http://www.w3.org/2000/svg">
<path d="M43.0122 29.6424C44.0706 29.0388 45.078 28.3338 46.0002 27.4998L40.9644 20.3268C42.051 19.77 43.0764 19.086 43.9998 18.2496L34.0002 3.9996L24 18.2502C24.924 19.0866 25.9494 19.7706 27.0354 20.3274L25.4046 22.6506L20.9658 16.3272C22.0512 15.7704 23.0766 15.0858 24 14.25L13.9998 0L4.0002 14.25C4.9242 15.0858 5.9502 15.7704 7.0344 16.3272L2.0004 23.5002C2.922 24.3342 3.9288 25.0416 4.9878 25.6428L0 32.7498C3.3564 35.7888 7.6182 37.5042 12 37.9044V43.9998H16.0002V37.9044C17.4672 37.7694 18.9084 37.4454 20.3178 37.014C23.6256 39.8808 27.7506 41.5182 32.0004 41.9046V48H36V41.9046C40.3812 41.5038 44.6424 39.7896 48 36.75L43.0122 29.6424ZM34.0002 10.965L38.3436 17.1564C37.0062 17.709 35.5314 18 34.0002 18C32.4684 18 30.9942 17.709 29.6562 17.1564L34.0002 10.965ZM30.9624 21.6912C32.9646 22.0878 35.0346 22.0878 37.0368 21.6912L40.4196 26.5116C38.4858 27.4842 36.291 27.9996 34.0002 27.9996C31.707 27.9996 29.5122 27.4842 27.5784 26.5146L30.9624 21.6912ZM13.9998 6.9648L18.3432 13.1562C17.0058 13.7088 15.5304 13.9998 13.9998 13.9998C12.4686 13.9998 10.9938 13.7088 9.6558 13.1562L13.9998 6.9648ZM10.9626 17.6916C12.9636 18.0882 15.036 18.0882 17.037 17.6916L20.4198 22.512C18.486 23.4846 16.2912 24 13.9998 24C11.7066 24 9.5118 23.4846 7.578 22.5156L10.9626 17.6916ZM13.9998 34.0002C10.9488 34.0002 8.037 33.246 5.5302 31.8324L8.7558 27.2364C12.1608 28.2366 15.8376 28.2366 19.2438 27.2364L22.4682 31.8324C19.9608 33.246 17.049 34.0002 13.9998 34.0002ZM34.0002 37.9998C30.9492 37.9998 28.0374 37.2462 25.5312 35.832L28.7562 31.2366C32.1606 32.2368 35.838 32.2368 39.2442 31.2366L42.4686 35.832C39.9612 37.2462 37.0488 37.9998 34.0002 37.9998Z" fill="#605B52"/>
</svg>
