<?xml version="1.0" encoding="utf-8"?>
<!-- Generator: Adobe Illustrator 16.0.0, SVG Export Plug-In . SVG Version: 6.00 Build 0)  -->
<!DOCTYPE svg PUBLIC "-//W3C//DTD SVG 1.0//EN" "http://www.w3.org/TR/2001/REC-SVG-20010904/DTD/svg10.dtd">
<svg version="1.0" id="Layer_1" xmlns="http://www.w3.org/2000/svg" xmlns:xlink="http://www.w3.org/1999/xlink" x="0px" y="0px"
	 enable-background="new 0 0 100 100" xml:space="preserve">

<path d="M42.064,45.29C42.067,45.29,26.67,10,26.67,10L11.273,45.286C10.456,47.253,10,49.407,10,51.666
	c0,9.205,7.462,16.666,16.667,16.666c9.206,0,16.667-7.461,16.667-16.666C43.333,49.407,42.877,47.256,42.064,45.29z M26.667,61.666
	c-5.514,0-10-4.486-10-10c0-1.317,0.257-2.604,0.762-3.821L26.67,26.67c4.126,9.458,8.887,20.374,9.251,21.211
	c0.495,1.211,0.745,2.483,0.745,3.785C36.667,57.18,32.181,61.666,26.667,61.666z"/>
</svg>
