<svg width="34" height="59" viewBox="0 0 34 59" fill="none" xmlns="http://www.w3.org/2000/svg">
<path d="M32.064 35.29C32.067 35.29 16.67 0 16.67 0L1.273 35.286C0.456 37.253 0 39.407 0 41.666C0 50.871 7.462 58.332 16.667 58.332C25.873 58.332 33.334 50.871 33.334 41.666C33.333 39.407 32.877 37.256 32.064 35.29ZM16.667 51.666C11.153 51.666 6.667 47.18 6.667 41.666C6.667 40.349 6.924 39.062 7.429 37.845L16.67 16.67C20.796 26.128 25.557 37.044 25.921 37.881C26.416 39.092 26.666 40.364 26.666 41.666C26.667 47.18 22.181 51.666 16.667 51.666Z" fill="black"/>
</svg>
