<svg width="38" height="46" viewBox="0 0 38 46" fill="none" xmlns="http://www.w3.org/2000/svg">
<path d="M21.3021 23.905L21.3005 23.9089C20.8116 24.111 20.3597 24.3642 19.9335 24.6436V11.4584C20.5204 11.6662 21.142 11.8011 21.8 11.8011L21.8039 11.7994C25.9457 11.7994 29.5549 9.54432 31.4925 6.19944C29.5549 2.85624 25.9457 0.599442 21.8039 0.599442L21.8 0.600562C18.7082 0.600562 16.2 3.1088 16.2 6.20056V11.5799C15.9009 11.403 15.6053 11.2187 15.276 11.0821C10.1206 8.94736 4.46798 9.8932 0.333496 13.0561C1.02062 18.2148 4.34758 22.8813 9.50238 25.0182C11.7743 25.959 14.231 25.6835 16.2 24.5277V45.4H19.9335V38.4426C22.1405 39.8885 25.0009 40.2564 27.6223 39.17L27.6257 39.1666C33.2677 36.8275 36.9138 31.7181 37.6665 26.0666C33.1383 22.6035 26.9475 21.5664 21.3021 23.905ZM21.8 4.33408H21.968C23.7376 4.37384 25.4204 5.052 26.7257 6.19888C25.3784 7.3816 23.6323 8.06536 21.8039 8.06536H21.7165C20.7265 8.02168 19.9335 7.20296 19.9335 6.20056C19.9335 5.17296 20.7718 4.33408 21.8 4.33408ZM15.9082 19.5084C15.3152 20.9375 13.9342 21.8621 12.3864 21.8621C11.8885 21.8621 11.398 21.7635 10.9315 21.5703C7.92709 20.3254 5.62662 17.8368 4.56934 14.8111C6.11158 14.0674 7.81454 13.6682 9.52757 13.6682C11.0082 13.6682 12.4625 13.9599 13.8463 14.5322C14.7871 14.9226 15.5173 15.6534 15.9082 16.5942C16.2985 17.5338 16.2985 18.5693 15.9082 19.5084ZM26.1971 35.7176L26.0677 35.7725C25.5503 35.9679 25.0121 36.0676 24.4656 36.0676C22.6265 36.0676 20.9841 34.97 20.2801 33.2715C19.3248 30.9654 20.4241 28.3133 22.7285 27.3574L22.9833 27.2521C24.4673 26.6742 26.0168 26.3807 27.5971 26.3807C29.6299 26.3807 31.6509 26.8786 33.4614 27.8082C32.3201 31.3479 29.6764 34.2756 26.1971 35.7176Z" fill="#605B52"/>
</svg>
