<svg width="80" height="50" viewBox="0 0 80 50" fill="none" xmlns="http://www.w3.org/2000/svg">
<path d="M44.9437 0.421295C39.9873 0.421295 35.955 4.35913 35.955 9.19937H41.3483C41.3483 7.26334 42.9612 5.68817 44.9437 5.68817C46.9262 5.68817 48.5392 7.26334 48.5392 9.19937C48.5392 11.1354 46.9262 12.7106 44.9437 12.7106H7.19092V17.9774H44.9437C49.9001 17.9774 53.9325 14.0396 53.9325 9.19937C53.9326 4.35913 49.9001 0.421295 44.9437 0.421295Z" fill="black"/>
<path d="M67.4158 2.17697C61.9637 2.17697 57.5281 6.50863 57.5281 11.8329C57.5281 15.7051 60.7541 18.8553 64.7191 18.8553C68.6842 18.8553 71.91 15.705 71.91 11.8329H66.5167C66.5167 12.8009 65.7103 13.5886 64.7189 13.5886C63.7277 13.5886 62.9211 12.8011 62.9211 11.8329C62.9211 9.41269 64.9373 7.44385 67.4155 7.44385C71.3806 7.44385 74.6064 10.5942 74.6064 14.4662C74.6064 18.3385 71.3805 21.4886 67.4155 21.4886H0V26.7555H67.4158C74.3547 26.7555 80 21.2425 80 14.4662C80 7.68997 74.3547 2.17697 67.4158 2.17697Z" fill="black"/>
<path d="M53.9326 30.2669H7.19092V35.5338H53.9325C56.4108 35.5338 58.4269 37.5027 58.4269 39.9228C58.4269 42.343 56.4106 44.3118 53.9325 44.3118C51.4544 44.3118 49.4381 42.3428 49.4381 39.9228H44.0448C44.0448 45.247 48.4804 49.5787 53.9325 49.5787C59.3845 49.5787 63.8201 45.247 63.8201 39.9228C63.8201 34.5985 59.3847 30.2669 53.9326 30.2669Z" fill="black"/>
</svg>
